<svg width="196" height="196" viewBox="0 0 196 196" fill="none" xmlns="http://www.w3.org/2000/svg">
<path d="M20.4366 172.443C20.4424 172.861 20.5306 173.274 20.6961 173.658C20.8616 174.043 21.1012 174.39 21.4011 174.682C21.7011 174.974 22.0555 175.203 22.4442 175.358C22.8329 175.512 23.2482 175.589 23.6665 175.583H172.328C172.747 175.589 173.163 175.513 173.552 175.359C173.941 175.205 174.296 174.975 174.596 174.683C174.897 174.392 175.137 174.044 175.302 173.659C175.468 173.275 175.557 172.861 175.562 172.443V168.694C175.636 167.563 175.787 161.928 172.071 155.693C169.727 151.761 166.326 148.368 161.961 145.599C156.681 142.251 149.964 139.829 141.838 138.372C137.713 137.791 133.622 136.995 129.58 135.987C118.833 133.243 117.893 130.813 117.885 130.789C117.823 130.549 117.733 130.317 117.616 130.099C117.526 129.65 117.31 127.943 117.726 123.373C118.78 111.765 125.007 104.905 130.009 99.392C131.585 97.6566 133.075 96.011 134.223 94.4022C139.176 87.4605 139.633 79.5593 139.654 79.0693C139.672 78.2011 139.552 77.3354 139.298 76.505C138.808 74.9941 137.898 74.055 137.228 73.3608C137.07 73.2019 136.916 73.0385 136.767 72.8708C136.718 72.8136 136.587 72.6585 136.705 71.8785C137.106 69.3661 137.382 66.8354 137.534 64.2958C137.763 60.2043 137.939 54.0875 136.881 48.1299C136.726 46.992 136.491 45.8663 136.179 44.7611C135.064 40.6615 133.275 37.158 130.789 34.267C130.36 33.7974 119.956 22.8336 89.7512 20.5878C85.5739 20.2775 81.4457 20.4449 77.3787 20.6531C76.1759 20.6799 74.9789 20.8276 73.8057 21.0941C70.6861 21.8986 69.8531 23.8749 69.6367 24.9815C69.2732 26.819 69.9102 28.24 70.3308 29.1873C70.3921 29.322 70.4697 29.4895 70.3349 29.9305C69.6367 31.0166 68.5301 31.9966 67.4072 32.9235C67.0805 33.1971 59.51 39.7305 59.0935 48.2605C57.9706 54.749 58.0522 64.8552 59.3793 71.8418C59.461 72.2297 59.5712 72.8014 59.3875 73.1893C57.9583 74.4674 56.3413 75.917 56.3454 79.2245C56.3617 79.5593 56.8232 87.4565 61.7762 94.4022C62.9196 96.011 64.41 97.6525 65.9821 99.388L65.9902 99.392C70.9923 104.905 77.2194 111.765 78.2729 123.369C78.6853 127.943 78.4689 129.645 78.3832 130.099C78.2646 130.317 78.1728 130.549 78.1096 130.789C78.1055 130.813 77.1704 133.235 66.4721 135.975C60.2981 137.555 54.2221 138.363 54.0383 138.384C46.1412 139.719 39.4649 142.083 34.1933 145.411C29.8446 148.159 26.435 151.565 24.0667 155.526C20.2773 161.855 20.3794 167.62 20.4325 168.674V172.443H20.4366Z" fill="#2F88FF" stroke="black" stroke-width="4" stroke-linejoin="round"/>
</svg>
