<svg width="181" height="64" viewBox="0 0 181 64" fill="none" xmlns="http://www.w3.org/2000/svg">
<path d="M1.51562 21.9844L2.02409 20.9489L3.76519 19.1716L5.49859 19.2025L7.8483 17.2706L8.48773 15.957L9.12716 14.0019L8.32595 11.6914L9.40451 7.58045L12.9792 8.2991L19.2271 3.87128L20.9297 1.95488L22.4859 1.15896L28.0096 0.517578L29.5581 1.91624L33.4409 2.13261H35.5287L36.5071 2.19443L38.0942 2.82808L45.5131 3.42309L46.8921 4.82948L51.1216 5.51723L56.8765 11.6219L56.6685 16.4361L57.747 18.5302L60.6977 21.4898L60.9057 21.6676L60.9673 22.3012L60.7824 22.5639L60.9057 23.0121L62.3078 24.4803L63.9179 26.8758L64.904 28.3363L66.2445 29.7195L66.9918 30.4923L69.4032 31.1491L71.9686 32.9187L73.2012 36.5583V37.3233L71.776 37.8256L69.1643 45.7771L70.0272 56.7115L66.3062 60.6293L55.5668 61.6261L54.7502 63.0557L46.8459 63.2952L45.0123 61.7884L39.581 61.3866L30.3979 57.6774L29.8432 57.7933L29.0034 56.7192L25.0667 55.6373L23.2794 53.0873L20.7371 51.4954L15.7218 50.174L14.5585 47.2763L10.668 44.7494L9.15028 40.8857L10.2211 38.6679L9.34288 35.4765L8.2258 34.6805L6.28439 30.2373L2.26291 26.1031L2.32454 22.9735L1.51562 21.9844Z" fill="#6A88D0"/>
<path d="M46.6759 63.8054L44.8115 62.2831L39.4649 61.8813L30.3511 58.1953L29.6346 58.3498L28.7102 57.1598L24.758 56.078L22.9245 53.4584L20.5285 51.9592L15.3514 50.5992L14.1573 47.6087L10.2591 45.0818L8.59505 40.8704L9.6736 38.6217L8.90321 35.7857L7.82465 35.013L5.86013 30.5234L1.76161 26.3119L1.82324 23.1591L0.921875 22.0618L1.60753 20.6709L3.55664 18.6772L5.32085 18.7081L7.44715 16.9617L8.01725 15.7794L8.58734 14.0176L7.79383 11.7225L9.02647 7.00878L12.8554 7.7738L18.8876 3.4928L20.621 1.55321L22.339 0.672286L28.1786 0L29.7656 1.42957L33.4558 1.63822H35.559L36.6222 1.70003L38.2092 2.33368L45.7437 2.94415L47.1304 4.366L51.3676 5.05374L57.3844 11.4366L57.1687 16.3358L58.1471 18.2445L61.0284 21.1345L61.3751 21.4359L61.4675 22.4405L61.3134 22.6723L61.3443 22.7805L62.6847 24.1869L65.281 28.0428L66.5907 29.3874L67.2455 30.0674L69.6106 30.7088L72.3841 32.6175L73.6937 36.4967V37.7021L72.1684 38.2353L69.6646 45.8623L70.5428 56.9203L66.529 61.1317L55.8667 62.1208L55.0424 63.5736L46.6759 63.8054ZM39.696 60.8922L45.2044 61.3094L47.0225 62.7931L54.4569 62.569L55.2658 61.1472L66.0745 60.1426L69.5182 56.5262L68.6553 45.7155L71.3749 37.424L72.6922 36.9603V36.6358L71.5366 33.2357L69.1792 31.6129L66.7139 30.9406L65.8819 30.0674L64.5106 28.661L61.9144 24.7973L60.4506 23.2673L60.2426 22.4714L60.4506 22.1623L60.4275 21.915L60.3427 21.8377L57.3382 18.824L56.1672 16.5444L56.3752 11.8075L50.8822 5.98103L46.6528 5.29329L45.2968 3.90235L37.9858 3.31507L36.4064 2.68915L35.5128 2.63505H33.4096L29.3573 2.40323L27.8473 1.0432L22.6317 1.64594L21.245 2.35687L19.5578 4.24236L13.0942 8.82473L9.76605 8.16017L8.84928 11.6607L9.65049 13.9867L8.94943 16.1349L8.24837 17.5799L5.66753 19.6972L3.97265 19.6663L2.43186 21.235L2.10059 21.9073L2.82476 22.7959L2.76313 25.9024L6.69986 29.9438L8.62586 34.3484L9.77376 35.1675L10.7445 38.7144L9.68901 40.9013L11.068 44.4018L14.9585 46.9287L16.0833 49.7415L20.9214 51.0165L23.6178 52.7088L25.3589 55.197L29.2803 56.2712L30.0275 57.2294L30.4282 57.1444L39.696 60.8922Z" fill="#490000"/>
<path d="M111.532 19.1L97.291 52H89.771L75.577 19.1H83.802L93.813 42.6L103.965 19.1H111.532ZM138.437 34.892C140.317 35.4873 141.79 36.49 142.855 37.9C143.92 39.2787 144.453 40.9863 144.453 43.023C144.453 45.9057 143.325 48.1303 141.069 49.697C138.844 51.2323 135.586 52 131.293 52H114.279V19.1H130.353C134.364 19.1 137.434 19.8677 139.565 21.403C141.727 22.9383 142.808 25.022 142.808 27.654C142.808 29.252 142.416 30.6777 141.633 31.931C140.881 33.1843 139.816 34.1713 138.437 34.892ZM121.846 24.834V32.589H129.413C131.293 32.589 132.719 32.26 133.69 31.602C134.661 30.944 135.147 29.9727 135.147 28.688C135.147 27.4033 134.661 26.4477 133.69 25.821C132.719 25.163 131.293 24.834 129.413 24.834H121.846ZM130.729 46.266C132.734 46.266 134.238 45.937 135.241 45.279C136.275 44.621 136.792 43.6027 136.792 42.224C136.792 39.498 134.771 38.135 130.729 38.135H121.846V46.266H130.729ZM164.458 19.1C167.372 19.1 169.895 19.5857 172.025 20.557C174.187 21.5283 175.848 22.907 177.007 24.693C178.167 26.479 178.746 28.594 178.746 31.038C178.746 33.4507 178.167 35.5657 177.007 37.383C175.848 39.169 174.187 40.5477 172.025 41.519C169.895 42.459 167.372 42.929 164.458 42.929H157.831V52H150.217V19.1H164.458ZM164.035 36.725C166.323 36.725 168.062 36.2393 169.252 35.268C170.443 34.2653 171.038 32.8553 171.038 31.038C171.038 29.1893 170.443 27.7793 169.252 26.808C168.062 25.8053 166.323 25.304 164.035 25.304H157.831V36.725H164.035Z" fill="black"/>
<path d="M14.1876 43.5441L21.4062 46.4419L19.9425 22.4482L11.9766 21.5596L14.1876 43.5441Z" fill="white"/>
<path d="M21.8232 46.604L20.3672 22.5176L30.8677 23.7153L30.8446 50.3054L21.8232 46.604Z" fill="black" stroke="black" stroke-miterlimit="10"/>
<path d="M10.6055 19.844C17.4312 20.4236 24.2646 21.0109 31.0904 21.5904C38.6018 20.2072 46.1208 18.824 53.6322 17.4408C49.3719 17.2476 45.1193 17.0467 40.859 16.8535C30.7745 17.8504 20.69 18.8472 10.6055 19.844Z" fill="#E52323"/>
<path d="M31.1092 21.8991H31.0707L10.5858 20.1527L10.5781 19.5345L40.8625 16.5439H40.8856L56.3552 17.2549L31.1092 21.8991ZM13.9833 19.8204L31.0861 21.2809L50.9316 17.6258L40.8779 17.1621L13.9833 19.8204Z" fill="#E52323"/>
<path d="M10.7148 20.2227C11.5854 28.3055 12.4482 36.3962 13.3188 44.4791C19.2971 47.2455 25.2677 50.0119 31.246 52.7783C31.2768 42.4777 31.3076 32.177 31.3384 21.8763C24.4588 21.3277 17.5868 20.779 10.7148 20.2227Z" fill="#CC2B1F" stroke="black" stroke-miterlimit="10"/>
<path d="M31.352 52.9644L13.2091 44.5569L10.582 20.0996L31.4521 21.7765L31.352 52.9644ZM13.4248 44.4024L31.1286 52.6012L31.221 21.9851L10.844 20.3469L13.4248 44.4024Z" fill="#CC2B1F" stroke="black" stroke-miterlimit="10"/>
<path d="M31.6541 52.33L54.1651 34.3173L55.9679 17.6338L31.5 21.8452L31.6541 52.33Z" fill="#CE3B28"/>
<path d="M31.3532 52.9712L31.1914 21.5823L56.3141 17.2627L54.4574 34.4794L54.3573 34.5567L31.3532 52.9712ZM31.8077 22.1001L31.9618 51.6884L53.8719 34.1549L55.613 18.0123L31.8077 22.1001Z" fill="#CE3B28" stroke="black" stroke-miterlimit="10"/>
<path d="M14.6641 21.0186C14.6641 21.0186 14.9722 20.8795 15.342 21.0804L15.2265 21.4977L16.7441 40.5535L17.2295 40.654L17.7611 40.7467L17.7688 40.4762L18.0153 40.484L17.9845 40.8858L18.2156 41.0249L18.2079 41.2567L18.0307 41.249L18.0384 41.5426L17.8612 41.5272L17.8381 41.1872L17.684 41.1099L16.9599 41.1176L17.1679 45.1822L17.4529 45.2904L17.5299 45.5377L16.9599 45.5454L16.8674 45.4141L16.8751 44.4172L16.7827 43.5286L14.9106 22.255L14.8567 21.4668L14.718 21.4127L14.6641 21.0186Z" fill="black"/>
<path d="M21.7064 46.8511L13.9408 43.7369L11.6758 21.2578L20.1964 22.2006L21.7064 46.8511ZM14.4415 43.3505L21.1132 46.032L19.6879 22.6951L12.2767 21.8683L14.4415 43.3505Z" fill="#470000" stroke="#350000" stroke-miterlimit="10"/>
<path d="M31.1141 50.7077L21.5689 46.7899L20.082 22.209L31.1372 23.4763L31.1141 50.7077ZM22.0851 46.419L30.5749 49.9041L30.598 23.9631L20.6598 22.8272L22.0851 46.419Z" fill="#470000" stroke="black" stroke-width="0.25" stroke-miterlimit="10"/>
<path d="M17.5 21.3441C17.5 21.3441 17.7234 21.1664 18.124 21.3596L18.1086 21.5914L17.9699 21.6069L17.9854 22.6114L18.0624 23.7165L19.7265 46.2496L19.8805 46.2651L19.8574 46.5201L19.9499 46.5278L19.9576 46.6747L19.5724 46.6669L19.5493 46.5587L19.4029 46.466L19.4183 46.1337L19.4953 46.1183L19.4722 45.5001L19.2642 43.4214L18.6479 42.95L18.6248 43.1587L18.4399 43.1432L18.3628 42.8264L18.1625 42.6873V42.5096L18.3706 42.4864L18.386 42.185L18.5709 42.2314V42.5327L19.0485 42.8109H19.2026L17.6541 21.7923L17.5616 21.7846V21.46L17.5 21.3441Z" fill="black"/>
<path d="M16.8926 45.6539L16.7462 45.4376L16.7539 44.4098L16.6692 43.5289L14.8048 22.2553L14.7586 21.5366L14.6199 21.4903L14.5352 20.9416L14.6199 20.903C14.6353 20.8952 14.982 20.7484 15.4057 20.9725L15.4905 21.0189L15.3518 21.5057L16.8618 40.4534L17.2547 40.5306L17.6476 40.6002L17.6553 40.3452L18.1406 40.3606L18.1021 40.8088L18.3255 40.9479L18.3178 41.3652L18.1406 41.3575L18.1483 41.6589L17.74 41.6202L17.7092 41.2493L17.6399 41.2184H17.0621L17.2624 45.0821L17.5243 45.1826L17.6707 45.6308L16.8926 45.6539ZM16.985 45.3757L17.0158 45.4298L17.3625 45.4221L17.3471 45.3757L17.0467 45.2598L16.8232 41.002L17.6938 40.9943L17.9249 41.1102V41.1334H18.079V41.087L17.8479 40.9479L17.8556 40.8861L17.2007 40.7702L16.6461 40.6543L16.9003 43.5134L16.9927 44.4098L16.985 45.3757ZM17.8787 40.5925V40.6929V40.5925ZM14.8279 21.3203L14.9743 21.3743L15.0282 22.2398L16.4997 38.9543L15.1053 21.4903L15.2054 21.1503C15.0282 21.0807 14.8818 21.0884 14.7894 21.1039L14.8279 21.3203Z" fill="black"/>
<path d="M20.0669 46.7812L19.4737 46.7658L19.4352 46.6112L19.2734 46.5107L19.2965 46.0239L19.3659 46.0085L19.3505 45.4907L19.1502 43.4661L18.7342 43.1493L18.7187 43.2652L18.3335 43.2266L18.2411 42.8711L18.0254 42.7166V42.3766L18.2334 42.3534L18.2488 42.0134L18.6571 42.1138V42.4384L19.0423 42.6625L17.54 21.8912L17.4399 21.8834V21.4893L17.332 21.3116L17.4168 21.2498C17.4245 21.242 17.7018 21.0257 18.1564 21.2498L18.2257 21.2807L18.2026 21.6902L18.0716 21.698L18.087 22.5943L18.1641 23.6916L19.8204 46.1244L19.9976 46.1398L19.9745 46.4026L20.0515 46.4103L20.0669 46.7812ZM19.6586 46.5417H19.7357L19.7588 46.3562L19.6201 46.3407L19.6047 46.1398V46.2016L19.52 46.2171L19.5123 46.3871L19.6432 46.4721L19.6586 46.5417ZM18.5493 42.7243L19.3659 43.3425L19.4891 44.5403L17.9561 23.7148L17.879 22.6098L17.8559 21.4893L18.0023 21.4739V21.4198C17.8559 21.3657 17.7403 21.3657 17.671 21.3811L17.6941 21.4121V21.6593L17.7789 21.6671L19.3197 42.8943H19.0115L18.4491 42.5698L18.2719 42.5852V42.6007L18.4568 42.732L18.5184 42.987L18.5493 42.7243Z" fill="black"/>
<path d="M21.6211 21.792C21.6211 21.792 21.937 21.6375 22.3145 21.7998L22.3222 21.9852H22.2451L22.2528 22.2634L22.1835 22.2711L23.4007 44.3716L23.8013 44.5339L23.809 44.6498L24.5794 44.7889L24.6025 44.4875L24.8028 44.503V44.9202L25.0417 45.0593L25.034 45.268L24.8645 45.2912V45.5616L24.6411 45.5539L24.6333 45.183H24.4562L24.2713 45.0516H23.5779L23.4392 45.0593L23.5548 47.7794L23.7243 47.8103L23.8167 47.9571L23.8013 48.0035H23.7089V48.0962H23.7628L23.7474 48.2199L23.6626 48.2276V48.2739L23.2929 48.2585L23.3006 48.0885L23.1542 48.0808V48.0344H23.0617V47.903L23.108 47.8953L23.1157 47.8567L23.1619 47.8489V47.7485H23.2081V47.7098H23.3083L23.2543 47.6326V47.053L21.9293 22.2325L21.7906 22.2093L21.7367 22.1861V21.9466L21.6827 21.9002L21.6211 21.792Z" fill="black"/>
<path d="M23.7954 48.4128L23.179 48.3819L23.1867 48.2196L23.0558 48.2119V48.1733H22.9556V47.8255L23.0172 47.8101L23.025 47.7637H23.0481V47.6555H23.102V47.6169H23.1482V47.076L21.8154 22.3559L21.7538 22.3482L21.6228 22.2786V22.0236L21.592 21.9927L21.4688 21.7377L21.5766 21.6914C21.592 21.6836 21.9464 21.5213 22.3624 21.6991L22.4317 21.73L22.4472 22.1086H22.3624L22.3701 22.3714L22.3008 22.3791L23.5103 44.2941L23.9032 44.4564L23.9109 44.5568L24.4656 44.6573L24.4887 44.3714L24.9124 44.41V44.8659L25.159 45.005L25.1513 45.3837L24.9818 45.4068V45.6928L24.5272 45.685L24.5195 45.3218H24.4194L24.2345 45.1905H23.5642L23.6721 47.7019L23.8031 47.7251L23.9494 47.9569L23.8878 48.1346L23.8647 48.3433L23.7954 48.351V48.4128ZM23.4179 48.1655L23.5488 48.1733V48.1346H23.595V47.926L23.441 47.8951V47.8564H23.3254V47.8951H23.2792V47.9801H23.2638V47.9878L23.4256 47.9955L23.4179 48.1655ZM23.3639 47.6169L23.4333 47.7096L23.3177 44.9664L23.5719 44.9509H24.3038L24.4887 45.0823H24.7429V45.1905L24.9124 45.1673V45.1287L24.6736 44.9896V44.9277L23.6952 44.75L23.6875 44.6186L23.2869 44.4564L22.062 22.1705L22.139 22.1627L22.1313 21.8691H22.1775C22.0234 21.8227 21.8848 21.8382 21.7923 21.8614L21.8539 21.9232V22.1318L22.0388 22.1627L22.0465 22.2555L23.3639 47.0682V47.6169Z" fill="black"/>
<path d="M24.997 22.1477C24.997 22.1477 25.4053 21.9236 25.7211 22.1941L25.7288 22.3332H25.6364L25.6287 22.5495L25.6672 22.5573L25.6749 22.6345L25.5902 22.65L26.5917 49.0701L26.6841 49.1628V49.2787V49.3946L26.6995 49.5105L26.3297 49.526L26.3143 49.4255L26.1063 49.3096L26.0678 49.2014L26.1372 49.1087L26.1988 49.0855L26.2912 49.0237L26.2681 48.2664L26.1217 44.4568L25.3359 43.885L25.2974 44.1709L25.1048 44.1013L25.0971 43.7691L24.7812 43.6068L24.8198 43.3595L25.074 43.3981L25.0663 43.0968L25.2589 43.1277L25.282 43.46L26.1063 43.8927L25.3128 22.5959L25.1202 22.565V22.3023L25.0663 22.2404L24.997 22.1477Z" fill="black" stroke="black" stroke-miterlimit="10"/>
<path d="M26.2278 49.6569L26.2046 49.5101L26.012 49.4019L25.935 49.1933L26.066 49.0233L26.143 48.9924L26.1738 48.9692L26.1507 48.2737L26.0043 44.5182L25.4188 44.0932L25.388 44.3327L24.9874 44.1937L24.9797 43.8459L24.6484 43.6759L24.7101 43.2277L24.9412 43.2664L24.9335 42.965L25.3572 43.0345L25.3803 43.39L25.9658 43.6991L25.18 22.696L24.9797 22.665V22.3482L24.9412 22.3096L24.8487 22.1009L24.9412 22.0468C24.9643 22.0391 25.4265 21.7841 25.7963 22.1087L25.8349 22.1396L25.8503 22.4487H25.7501V22.4564L25.7809 22.4641L25.8117 22.7346L25.7193 22.75L26.7054 49.0156L26.7979 49.116V49.3865L26.8364 49.626L26.2278 49.6569ZM26.1969 49.2397L26.4127 49.3556L26.4204 49.4097L26.559 49.4019V49.3942V49.2088L26.4743 49.116L25.4805 22.5569L25.519 22.5491L25.5267 22.2246H25.5652C25.4188 22.1473 25.2648 22.1705 25.1646 22.2014L25.2108 22.2555V22.4641L25.4034 22.495L26.2123 44.0855L25.1646 43.5291L24.9027 43.4905L24.895 43.5446L25.1954 43.6991L25.2031 43.9077L25.2339 43.6759L26.2201 44.3946L26.3664 48.2583L26.3895 49.0774L26.2278 49.1933L26.1969 49.2088V49.2397Z" fill="black" stroke="black" stroke-miterlimit="10"/>
<path d="M11.0156 21.8682L11.0464 22.6023L12.5025 22.7027V21.9454L11.0156 21.8682Z" fill="#050000"/>
<path d="M12.6163 22.8348L10.9291 22.7111L10.8906 21.7529L12.6086 21.8457V22.8348H12.6163ZM11.1526 22.4948L12.3852 22.5875V22.062L11.1372 21.9925L11.1526 22.4948Z" fill="black"/>
<path d="M11.8008 29.04L13.1413 29.1869L13.2029 29.9364L11.8393 29.7896L11.8008 29.04Z" fill="black"/>
<path d="M13.3243 30.0673L11.7296 29.8896L11.668 28.9082L13.2396 29.0859L13.3243 30.0673ZM11.953 29.6809L13.0778 29.8046L13.0316 29.2946L11.9222 29.1709L11.953 29.6809Z" fill="black"/>
<path d="M12.5078 35.7471L13.8406 36.033L13.8637 36.628L12.5694 36.373L12.5078 35.7471Z" fill="black"/>
<path d="M13.989 36.7674L12.4637 36.4738L12.3789 35.6006L13.9505 35.9406L13.989 36.7674ZM12.6717 36.2806L13.7425 36.4892L13.7271 36.1338L12.6408 35.902L12.6717 36.2806Z" fill="black"/>
<path d="M13.1719 42.0449L14.4815 42.3231L14.5124 42.9336L13.2335 42.6399L13.1719 42.0449Z" fill="black"/>
<path d="M14.6338 43.0807L13.1238 42.733L13.0391 41.8984L14.5953 42.2307L14.6338 43.0807ZM13.3395 42.5475L14.3873 42.7948L14.3719 42.4239L13.301 42.1921L13.3395 42.5475Z" fill="black"/>
<path d="M31.4157 50.0043L30.1445 49.3474L30.1522 48.5283C30.576 48.7292 31.0074 48.9301 31.4311 49.1311C31.4234 49.417 31.4157 49.7106 31.4157 50.0043Z" fill="black"/>
<path d="M31.5296 50.1896L30.0273 49.4169L30.0351 48.3428L31.545 49.0537L31.5296 50.1896ZM30.2585 49.2778L31.2985 49.811L31.3062 49.2005L30.2585 48.706V49.2778Z" fill="black"/>
<path d="M31.3915 41.7355L31.3761 42.4773L30.0664 41.8746V41.125L31.3915 41.7355Z" fill="black"/>
<path d="M31.4861 42.655L29.9453 41.9518L29.953 40.9473L31.5092 41.6582L31.4861 42.655ZM30.1841 41.7973L31.2704 42.2918L31.2858 41.7973L30.1918 41.295L30.1841 41.7973Z" fill="black" stroke="#020000" stroke-miterlimit="10"/>
<path d="M31.3317 34.2791L29.9296 33.8618L29.9219 33.0195L31.3394 33.4368L31.3317 34.2791Z" fill="black" stroke="#020000" stroke-miterlimit="10"/>
<path d="M31.4456 34.4339L29.8201 33.9548L29.8047 32.8652L31.461 33.3443L31.4456 34.4339ZM30.0435 33.7771L31.2145 34.1248L31.2222 33.5221L30.0358 33.1743L30.0435 33.7771Z" fill="black" stroke="#020000" stroke-miterlimit="10"/>
<path d="M29.7655 24.0244L31.2216 24.3026V25.2685L29.7578 25.0135L29.7655 24.0244Z" fill="black" stroke="black" stroke-miterlimit="10"/>
<path d="M31.3394 25.408L29.6445 25.1066L29.6522 23.8779L31.3394 24.1948V25.408ZM29.8757 24.9134L31.1083 25.1298V24.3957L29.8834 24.1638L29.8757 24.9134Z" fill="black" stroke="black" stroke-miterlimit="10"/>
</svg>
